<?xml version="1.0" encoding="UTF-8" standalone="no"?>
<!-- Created with Inkscape (http://www.inkscape.org/) -->

<svg
   width="512"
   height="512"
   viewBox="0 0 135.46667 135.46667"
   version="1.1"
   id="svg5"
   inkscape:version="1.2.2 (732a01da63, 2022-12-09)"
   sodipodi:docname="Parachute.svg"
   inkscape:export-filename="Parachute.png"
   inkscape:export-xdpi="96"
   inkscape:export-ydpi="96"
   xmlns:inkscape="http://www.inkscape.org/namespaces/inkscape"
   xmlns:sodipodi="http://sodipodi.sourceforge.net/DTD/sodipodi-0.dtd"
   xmlns="http://www.w3.org/2000/svg"
   xmlns:svg="http://www.w3.org/2000/svg">
  <sodipodi:namedview
     id="namedview7"
     pagecolor="#ffffff"
     bordercolor="#666666"
     borderopacity="1.0"
     inkscape:showpageshadow="2"
     inkscape:pageopacity="0.0"
     inkscape:pagecheckerboard="0"
     inkscape:deskcolor="#d1d1d1"
     inkscape:document-units="mm"
     showgrid="false"
     inkscape:zoom="0.67882568"
     inkscape:cx="693.10872"
     inkscape:cy="148.78636"
     inkscape:window-width="1920"
     inkscape:window-height="1027"
     inkscape:window-x="-8"
     inkscape:window-y="-8"
     inkscape:window-maximized="1"
     inkscape:current-layer="layer1" />
  <defs
     id="defs2" />
  <g
     inkscape:label="Layer 1"
     inkscape:groupmode="layer"
     id="layer1">
    <path
       id="path646-9"
       style="fill:#ffffff;stroke:#000000;stroke-width:4.3612;stroke-linecap:butt;stroke-linejoin:bevel;stroke-dasharray:none;stroke-opacity:1;paint-order:stroke fill markers"
       d="M 95.814384,61.55209 C 84.038793,73.785813 72.227009,65.320039 67.732983,61.892384 53.548264,77.066773 38.409941,60.313467 38.409941,60.313467 24.366829,76.750503 11.134794,60.425921 11.134794,60.425921 11.591684,23.068697 36.232863,12.997835 67.386886,12.997835 c 31.154023,4e-6 56.409484,10.070868 56.666244,47.161287 -13.42135,16.500923 -28.238746,1.392968 -28.238746,1.392968 z"
       sodipodi:nodetypes="ccccccc" />
    <path
       id="path646"
       style="fill:none;stroke:#000000;stroke-width:4.3612;stroke-linecap:butt;stroke-linejoin:bevel;stroke-dasharray:none;stroke-opacity:1;paint-order:stroke fill markers"
       d="m 67.61459,12.884785 c 18.618126,12.765026 26.831648,12.430952 28.897916,47.831714 -13.680648,16.691247 -29.031101,0.471693 -29.031101,0.471693 0.271362,20.402904 1.148093,39.475408 1.195306,59.777368 M 67.68507,12.955846 V 61.204715 C 54.140343,77.770031 38.67978,60.711003 38.67978,60.711003 39.526454,24.909129 47.072916,27.448195 67.705564,13.224326 M 124.3216,60.304508 C 110.77688,76.869823 96.666128,61.366418 96.666128,61.366418 87.369736,83.57316 79.955475,98.943993 68.305182,121.66757 m -0.263597,-0.63138 C 56.396124,98.524333 48.093843,81.836817 38.429599,60.335488 24.511496,76.960281 10.886789,60.601334 10.886789,60.601334 M 66.902981,122.89588 C 86.401922,101.65357 104.76711,81.994666 124.07486,60.433291 123.94147,23.278481 98.686002,13.207617 67.531802,13.207613 c -31.154204,0 -55.795527,10.070862 -55.859822,47.462451 17.793457,21.79815 38.044538,41.625406 58.256891,62.243056"
       sodipodi:nodetypes="ccccccccccccccccccc" />
    <path
       style="fill:none;stroke:#000000;stroke-width:3.38304;stroke-linecap:round;stroke-linejoin:miter;stroke-dasharray:none;stroke-opacity:1"
       d="m 105.07816,30.586701 c 2.86536,1.713626 6.61962,6.524639 7.58963,9.814915"
       id="path1475"
       sodipodi:nodetypes="cc" />
  </g>
</svg>
